<?xml version="1.0" encoding="UTF-8" standalone="no"?>
<!DOCTYPE svg PUBLIC "-//W3C//DTD SVG 1.1//EN"
 "http://www.w3.org/Graphics/SVG/1.1/DTD/svg11.dtd">
<!-- Generated by graphviz version 2.40.1 (20161225.0304)
 -->
<!-- Title: %3 Pages: 1 -->
<svg width="1369pt" height="260pt"
 viewBox="0.00 0.00 1368.67 260.00" xmlns="http://www.w3.org/2000/svg" xmlns:xlink="http://www.w3.org/1999/xlink">
<g id="graph0" class="graph" transform="scale(1 1) rotate(0) translate(4 256)">
<title>%3</title>
<polygon fill="#ffffff" stroke="transparent" points="-4,4 -4,-256 1364.6747,-256 1364.6747,4 -4,4"/>
<!-- foundation/admin -->
<g id="node1" class="node">
<title>foundation/admin</title>
<ellipse fill="none" stroke="#000000" cx="169.692" cy="-90" rx="73.387" ry="18"/>
<text text-anchor="middle" x="169.692" y="-86.3" font-family="Times,serif" font-size="14.00" fill="#000000">foundation/admin</text>
</g>
<!-- foundation/alb -->
<g id="node2" class="node">
<title>foundation/alb</title>
<ellipse fill="none" stroke="#000000" cx="360.692" cy="-90" rx="61.99" ry="18"/>
<text text-anchor="middle" x="360.692" y="-86.3" font-family="Times,serif" font-size="14.00" fill="#000000">foundation/alb</text>
</g>
<!-- foundation/ecs&#45;cluster -->
<g id="node3" class="node">
<title>foundation/ecs&#45;cluster</title>
<ellipse fill="none" stroke="#000000" cx="360.692" cy="-162" rx="89.0842" ry="18"/>
<text text-anchor="middle" x="360.692" y="-158.3" font-family="Times,serif" font-size="14.00" fill="#000000">foundation/ecs&#45;cluster</text>
</g>
<!-- foundation/ecs&#45;cluster&#45;&gt;foundation/admin -->
<g id="edge1" class="edge">
<title>foundation/ecs&#45;cluster&#45;&gt;foundation/admin</title>
<path fill="none" stroke="#000000" d="M318.303,-146.0209C289.147,-135.0301 250.3071,-120.3889 219.6461,-108.8309"/>
<polygon fill="#000000" stroke="#000000" points="220.5931,-105.4475 210.0013,-105.1951 218.1239,-111.9975 220.5931,-105.4475"/>
</g>
<!-- foundation/ecs&#45;cluster&#45;&gt;foundation/alb -->
<g id="edge2" class="edge">
<title>foundation/ecs&#45;cluster&#45;&gt;foundation/alb</title>
<path fill="none" stroke="#000000" d="M360.692,-143.8314C360.692,-136.131 360.692,-126.9743 360.692,-118.4166"/>
<polygon fill="#000000" stroke="#000000" points="364.1921,-118.4132 360.692,-108.4133 357.1921,-118.4133 364.1921,-118.4132"/>
</g>
<!-- foundation/jumphost -->
<g id="node4" class="node">
<title>foundation/jumphost</title>
<ellipse fill="none" stroke="#000000" cx="131.692" cy="-162" rx="84.485" ry="18"/>
<text text-anchor="middle" x="131.692" y="-158.3" font-family="Times,serif" font-size="14.00" fill="#000000">foundation/jumphost</text>
</g>
<!-- foundation/jumphost&#45;&gt;foundation/admin -->
<g id="edge3" class="edge">
<title>foundation/jumphost&#45;&gt;foundation/admin</title>
<path fill="none" stroke="#000000" d="M141.281,-143.8314C145.5891,-135.6688 150.7607,-125.87 155.5039,-116.8827"/>
<polygon fill="#000000" stroke="#000000" points="158.6655,-118.3909 160.2377,-107.9134 152.4748,-115.1236 158.6655,-118.3909"/>
</g>
<!-- foundation/rds -->
<g id="node5" class="node">
<title>foundation/rds</title>
<ellipse fill="none" stroke="#000000" cx="1165.692" cy="-18" rx="61.99" ry="18"/>
<text text-anchor="middle" x="1165.692" y="-14.3" font-family="Times,serif" font-size="14.00" fill="#000000">foundation/rds</text>
</g>
<!-- foundation/s3 -->
<g id="node6" class="node">
<title>foundation/s3</title>
<ellipse fill="none" stroke="#000000" cx="830.692" cy="-18" rx="59.2899" ry="18"/>
<text text-anchor="middle" x="830.692" y="-14.3" font-family="Times,serif" font-size="14.00" fill="#000000">foundation/s3</text>
</g>
<!-- snowplow/2&#45;collector/scala&#45;stream&#45;collector&#45;kinesis -->
<g id="node7" class="node">
<title>snowplow/2&#45;collector/scala&#45;stream&#45;collector&#45;kinesis</title>
<ellipse fill="none" stroke="#000000" cx="737.692" cy="-234" rx="194.9654" ry="18"/>
<text text-anchor="middle" x="737.692" y="-230.3" font-family="Times,serif" font-size="14.00" fill="#000000">snowplow/2&#45;collector/scala&#45;stream&#45;collector&#45;kinesis</text>
</g>
<!-- snowplow/2&#45;collector/scala&#45;stream&#45;collector&#45;kinesis&#45;&gt;foundation/alb -->
<g id="edge6" class="edge">
<title>snowplow/2&#45;collector/scala&#45;stream&#45;collector&#45;kinesis&#45;&gt;foundation/alb</title>
<path fill="none" stroke="#000000" d="M691.8413,-216.4867C619.7258,-188.9413 480.5278,-135.7728 407.7012,-107.9558"/>
<polygon fill="#000000" stroke="#000000" points="408.896,-104.6655 398.3054,-104.3669 406.3982,-111.2048 408.896,-104.6655"/>
</g>
<!-- snowplow/2&#45;collector/scala&#45;stream&#45;collector&#45;kinesis&#45;&gt;foundation/ecs&#45;cluster -->
<g id="edge4" class="edge">
<title>snowplow/2&#45;collector/scala&#45;stream&#45;collector&#45;kinesis&#45;&gt;foundation/ecs&#45;cluster</title>
<path fill="none" stroke="#000000" d="M652.6158,-217.752C587.4026,-205.2975 498.2699,-188.2748 435.7063,-176.3263"/>
<polygon fill="#000000" stroke="#000000" points="435.9923,-172.8178 425.5132,-174.3796 434.6791,-179.6935 435.9923,-172.8178"/>
</g>
<!-- snowplow/kinesis -->
<g id="node8" class="node">
<title>snowplow/kinesis</title>
<ellipse fill="none" stroke="#000000" cx="693.692" cy="-162" rx="73.387" ry="18"/>
<text text-anchor="middle" x="693.692" y="-158.3" font-family="Times,serif" font-size="14.00" fill="#000000">snowplow/kinesis</text>
</g>
<!-- snowplow/2&#45;collector/scala&#45;stream&#45;collector&#45;kinesis&#45;&gt;snowplow/kinesis -->
<g id="edge5" class="edge">
<title>snowplow/2&#45;collector/scala&#45;stream&#45;collector&#45;kinesis&#45;&gt;snowplow/kinesis</title>
<path fill="none" stroke="#000000" d="M726.589,-215.8314C721.5482,-207.5829 715.4864,-197.6635 709.9471,-188.5992"/>
<polygon fill="#000000" stroke="#000000" points="712.8402,-186.6212 704.6391,-179.9134 706.8672,-190.2713 712.8402,-186.6212"/>
</g>
<!-- snowplow/kinesis&#45;&gt;foundation/s3 -->
<g id="edge16" class="edge">
<title>snowplow/kinesis&#45;&gt;foundation/s3</title>
<path fill="none" stroke="#000000" d="M629.6103,-153.0442C563.8603,-141.228 476.1138,-116.5209 513.692,-72 529.6687,-53.0716 675.8443,-34.4351 764.0185,-24.7828"/>
<polygon fill="#000000" stroke="#000000" points="764.6426,-28.2358 774.2075,-23.6791 763.8887,-21.2765 764.6426,-28.2358"/>
</g>
<!-- snowplow/4&#45;storage/lambda&#45;tsv&#45;to&#45;json&#45;transformer -->
<g id="node11" class="node">
<title>snowplow/4&#45;storage/lambda&#45;tsv&#45;to&#45;json&#45;transformer</title>
<ellipse fill="none" stroke="#000000" cx="718.692" cy="-90" rx="195.7654" ry="18"/>
<text text-anchor="middle" x="718.692" y="-86.3" font-family="Times,serif" font-size="14.00" fill="#000000">snowplow/4&#45;storage/lambda&#45;tsv&#45;to&#45;json&#45;transformer</text>
</g>
<!-- snowplow/kinesis&#45;&gt;snowplow/4&#45;storage/lambda&#45;tsv&#45;to&#45;json&#45;transformer -->
<g id="edge17" class="edge">
<title>snowplow/kinesis&#45;&gt;snowplow/4&#45;storage/lambda&#45;tsv&#45;to&#45;json&#45;transformer</title>
<path fill="none" stroke="#000000" d="M700.0006,-143.8314C702.7037,-136.0463 705.9237,-126.7729 708.923,-118.1347"/>
<polygon fill="#000000" stroke="#000000" points="712.3247,-119.0081 712.2985,-108.4133 705.712,-116.7119 712.3247,-119.0081"/>
</g>
<!-- snowplow/3&#45;enricher/stream&#45;enrich&#45;kinesis -->
<g id="node9" class="node">
<title>snowplow/3&#45;enricher/stream&#45;enrich&#45;kinesis</title>
<ellipse fill="none" stroke="#000000" cx="360.692" cy="-234" rx="163.5712" ry="18"/>
<text text-anchor="middle" x="360.692" y="-230.3" font-family="Times,serif" font-size="14.00" fill="#000000">snowplow/3&#45;enricher/stream&#45;enrich&#45;kinesis</text>
</g>
<!-- snowplow/3&#45;enricher/stream&#45;enrich&#45;kinesis&#45;&gt;foundation/ecs&#45;cluster -->
<g id="edge7" class="edge">
<title>snowplow/3&#45;enricher/stream&#45;enrich&#45;kinesis&#45;&gt;foundation/ecs&#45;cluster</title>
<path fill="none" stroke="#000000" d="M360.692,-215.8314C360.692,-208.131 360.692,-198.9743 360.692,-190.4166"/>
<polygon fill="#000000" stroke="#000000" points="364.1921,-190.4132 360.692,-180.4133 357.1921,-190.4133 364.1921,-190.4132"/>
</g>
<!-- snowplow/3&#45;enricher/stream&#45;enrich&#45;kinesis&#45;&gt;snowplow/kinesis -->
<g id="edge8" class="edge">
<title>snowplow/3&#45;enricher/stream&#45;enrich&#45;kinesis&#45;&gt;snowplow/kinesis</title>
<path fill="none" stroke="#000000" d="M435.0093,-217.9314C493.025,-205.3875 572.8451,-188.1291 628.4177,-176.1134"/>
<polygon fill="#000000" stroke="#000000" points="629.4669,-179.4675 638.5014,-173.9331 627.9875,-172.6256 629.4669,-179.4675"/>
</g>
<!-- snowplow/4&#45;storage/lambda&#45;json&#45;to&#45;postgres&#45;loader -->
<g id="node10" class="node">
<title>snowplow/4&#45;storage/lambda&#45;json&#45;to&#45;postgres&#45;loader</title>
<ellipse fill="none" stroke="#000000" cx="1165.692" cy="-90" rx="194.9654" ry="18"/>
<text text-anchor="middle" x="1165.692" y="-86.3" font-family="Times,serif" font-size="14.00" fill="#000000">snowplow/4&#45;storage/lambda&#45;json&#45;to&#45;postgres&#45;loader</text>
</g>
<!-- snowplow/4&#45;storage/lambda&#45;json&#45;to&#45;postgres&#45;loader&#45;&gt;foundation/rds -->
<g id="edge10" class="edge">
<title>snowplow/4&#45;storage/lambda&#45;json&#45;to&#45;postgres&#45;loader&#45;&gt;foundation/rds</title>
<path fill="none" stroke="#000000" d="M1165.692,-71.8314C1165.692,-64.131 1165.692,-54.9743 1165.692,-46.4166"/>
<polygon fill="#000000" stroke="#000000" points="1169.1921,-46.4132 1165.692,-36.4133 1162.1921,-46.4133 1169.1921,-46.4132"/>
</g>
<!-- snowplow/4&#45;storage/lambda&#45;json&#45;to&#45;postgres&#45;loader&#45;&gt;foundation/s3 -->
<g id="edge9" class="edge">
<title>snowplow/4&#45;storage/lambda&#45;json&#45;to&#45;postgres&#45;loader&#45;&gt;foundation/s3</title>
<path fill="none" stroke="#000000" d="M1088.4156,-73.3913C1027.6585,-60.3331 944.3269,-42.423 889.0618,-30.5452"/>
<polygon fill="#000000" stroke="#000000" points="889.5933,-27.0795 879.081,-28.4 888.1223,-33.9232 889.5933,-27.0795"/>
</g>
<!-- snowplow/4&#45;storage/lambda&#45;tsv&#45;to&#45;json&#45;transformer&#45;&gt;foundation/s3 -->
<g id="edge11" class="edge">
<title>snowplow/4&#45;storage/lambda&#45;tsv&#45;to&#45;json&#45;transformer&#45;&gt;foundation/s3</title>
<path fill="none" stroke="#000000" d="M746.6655,-72.0171C761.8633,-62.2471 780.7717,-50.0916 796.8011,-39.787"/>
<polygon fill="#000000" stroke="#000000" points="798.8491,-42.6313 805.3683,-34.2796 795.0638,-36.7431 798.8491,-42.6313"/>
</g>
<!-- snowplow/4&#45;storage/s3&#45;bucket&#45;notifications -->
<g id="node12" class="node">
<title>snowplow/4&#45;storage/s3&#45;bucket&#45;notifications</title>
<ellipse fill="none" stroke="#000000" cx="966.692" cy="-162" rx="165.1707" ry="18"/>
<text text-anchor="middle" x="966.692" y="-158.3" font-family="Times,serif" font-size="14.00" fill="#000000">snowplow/4&#45;storage/s3&#45;bucket&#45;notifications</text>
</g>
<!-- snowplow/4&#45;storage/s3&#45;bucket&#45;notifications&#45;&gt;foundation/s3 -->
<g id="edge12" class="edge">
<title>snowplow/4&#45;storage/s3&#45;bucket&#45;notifications&#45;&gt;foundation/s3</title>
<path fill="none" stroke="#000000" d="M961.5996,-143.9285C955.3303,-124.3169 943.0682,-92.9992 923.692,-72 910.3387,-57.5281 892.203,-45.8151 875.4919,-37.0441"/>
<polygon fill="#000000" stroke="#000000" points="876.9011,-33.8352 866.394,-32.4751 873.7596,-40.0907 876.9011,-33.8352"/>
</g>
<!-- snowplow/4&#45;storage/s3&#45;bucket&#45;notifications&#45;&gt;snowplow/4&#45;storage/lambda&#45;json&#45;to&#45;postgres&#45;loader -->
<g id="edge13" class="edge">
<title>snowplow/4&#45;storage/s3&#45;bucket&#45;notifications&#45;&gt;snowplow/4&#45;storage/lambda&#45;json&#45;to&#45;postgres&#45;loader</title>
<path fill="none" stroke="#000000" d="M1014.3575,-144.7542C1042.4754,-134.5809 1078.2554,-121.6354 1107.9647,-110.8863"/>
<polygon fill="#000000" stroke="#000000" points="1109.1672,-114.1733 1117.3798,-107.4798 1106.7856,-107.5909 1109.1672,-114.1733"/>
</g>
<!-- snowplow/cloudwatch -->
<g id="node13" class="node">
<title>snowplow/cloudwatch</title>
<ellipse fill="none" stroke="#000000" cx="89.692" cy="-234" rx="89.8845" ry="18"/>
<text text-anchor="middle" x="89.692" y="-230.3" font-family="Times,serif" font-size="14.00" fill="#000000">snowplow/cloudwatch</text>
</g>
<!-- snowplow/cloudwatch&#45;&gt;foundation/alb -->
<g id="edge14" class="edge">
<title>snowplow/cloudwatch&#45;&gt;foundation/alb</title>
<path fill="none" stroke="#000000" d="M139.9709,-218.9741C166.3564,-209.8602 198.5426,-196.7404 224.692,-180 244.2854,-167.4567 243.9075,-157.725 262.692,-144 280.1895,-131.2154 301.0466,-119.319 319.0126,-109.9643"/>
<polygon fill="#000000" stroke="#000000" points="320.8004,-112.9812 328.1111,-105.3128 317.614,-106.7485 320.8004,-112.9812"/>
</g>
<!-- snowplow/cloudwatch&#45;&gt;foundation/ecs&#45;cluster -->
<g id="edge15" class="edge">
<title>snowplow/cloudwatch&#45;&gt;foundation/ecs&#45;cluster</title>
<path fill="none" stroke="#000000" d="M143.8816,-219.6028C188.0084,-207.8791 250.3917,-191.3049 296.9206,-178.943"/>
<polygon fill="#000000" stroke="#000000" points="297.8304,-182.3227 306.5964,-176.3723 296.0329,-175.5574 297.8304,-182.3227"/>
</g>
</g>
</svg>
